# xmcd
#
# Track frame offsets:
#	150
#	14780
#	24622
#	36885
#	54750
#	66607
#	76797
#	88775
#	100350
#	112830
#	125685
#	142912
#	155127
#	168135
#	184717
#
# Disc length: 2664 seconds
#
# Revision: 3
# Processed by: cddbd v1.5.2PL0 Copyright (c) Steve Scherf et al.
# Submitted via: audiograbber 1.83.01
#
DISCID=c50a660f
DTITLE=Jeannie C. Riley - The Best Of Jeannie C. Riley
DYEAR=1900
DGENRE=Oldies
TTITLE0=Harper Valley P.T.A.  (1968)
TTITLE1=The Girl Most Likely
TTITLE2=There Never Was A Time
TTITLE3=The Rib
TTITLE4=The Back Side Of Dallas
TTITLE5=Things Go Better With Love
TTITLE6=Country Girl
TTITLE7=Duty Not Desire
TTITLE8=The Generation Gap
TTITLE9=My Man
TTITLE10=Oh, Singer
TTITLE11=Good Enough To Be Your Wife
TTITLE12=Roses And Thorns
TTITLE13=From Harper Valley To The Mountain Top
TTITLE14=Harper Valley P.T.A.  (1986)
EXTD=
EXTT0=
EXTT1=
EXTT2=
EXTT3=
EXTT4=
EXTT5=
EXTT6=
EXTT7=
EXTT8=
EXTT9=
EXTT10=
EXTT11=
EXTT12=
EXTT13=
EXTT14=
PLAYORDER=
